<svg width="103.1875" height="23.8125" xmlns="http://www.w3.org/2000/svg">

 <metadata id="metadata5">image/svg+xml</metadata>
 <g>
  <title>background</title>
  <rect fill="none" id="canvas_background" height="402" width="582" y="-1" x="-1"/>
 </g>
 <g>
  <title>Layer 1</title>
  <g stroke="null" id="g123">
   <rect stroke="null" y="-331.954194" x="401.709938" height="52.203419" width="3.488878" id="rect67"/>
   <g id="svg_1">
    <path stroke="null" fill="#2b2d2a" id="path116" d="m20.013704,14.677507q-0.939309,0 -1.822037,-0.24836q-0.8714,-0.25964 -1.403299,-0.66604l0.622433,-1.37724q0.509263,0.37253 1.210912,0.59831q0.70165,0.22577 1.403299,0.22577q0.780876,0 1.154332,-0.22577q0.373456,-0.23707 0.373456,-0.62089q0,-0.28222 -0.226331,-0.46285q-0.215023,-0.19191 -0.565853,-0.3048q-0.339502,-0.11289 -0.927991,-0.24835q-0.905355,-0.21449 -1.482516,-0.42898q-0.577161,-0.21449 -0.995889,-0.68862q-0.40741,-0.47414 -0.40741,-1.26436q0,-0.68862 0.373456,-1.24178q0.373456,-0.56444 1.120378,-0.89182q0.75824,-0.32738 1.844663,-0.32738q0.75823,0 1.482516,0.18063q0.724286,0.18062 1.267502,0.51928l-0.565843,1.38854q-1.097752,-0.62089 -2.195493,-0.62089q-0.769548,0 -1.143014,0.24836q-0.362138,0.24835 -0.362138,0.65475q0,0.4064 0.418728,0.6096q0.430046,0.19191 1.301447,0.38382q0.905355,0.21449 1.482516,0.42898q0.577171,0.21449 0.984581,0.67733q0.418728,0.46285 0.418728,1.25307q0,0.67733 -0.384784,1.24178q-0.373456,0.55315 -1.131686,0.88053q-0.75824,0.32738 -1.844663,0.32738z"/>
    <path stroke="null" fill="#2b2d2a" id="path118" d="m24.248884,8.468617l1.765447,0l0,6.07342l-1.765447,0l0,-6.07342zm0.882728,-0.84667q-0.486626,0 -0.792184,-0.28222q-0.305558,-0.28222 -0.305558,-0.69991q0,-0.41769 0.305558,-0.69991q0.305558,-0.28222 0.792184,-0.28222q0.486626,0 0.792184,0.27093q0.305558,0.27093 0.305558,0.67733q0,0.44027 -0.305558,0.73378q-0.305558,0.28222 -0.792184,0.28222z"/>
    <path stroke="null" fill="#2b2d2a" id="path120" d="m33.668478,8.468617l0,5.05742q0,1.67076 -0.8714,2.48356q-0.87141,0.8128 -2.546313,0.8128q-0.882728,0 -1.674912,-0.21449q-0.792184,-0.21449 -1.312765,-0.62089l0.70165,-1.26435q0.384774,0.31608 0.973263,0.49671q0.588479,0.19191 1.176958,0.19191q0.916673,0 1.346719,-0.41769q0.441364,-0.4064 0.441364,-1.24178l0,-0.25964q-0.690342,0.75635 -1.92389,0.75635q-0.837446,0 -1.539096,-0.36124q-0.690342,-0.37254 -1.097752,-1.03858q-0.40741,-0.66604 -0.40741,-1.53529q0,-0.86924 0.40741,-1.53529q0.40741,-0.66604 1.097752,-1.02729q0.70165,-0.37253 1.539096,-0.37253q1.324093,0 2.014424,0.86924l0,-0.77893l1.674902,0zm-3.338497,4.33493q0.70165,0 1.143014,-0.4064q0.452672,-0.41768 0.452672,-1.08373q0,-0.66604 -0.452672,-1.07244q-0.441364,-0.41769 -1.143014,-0.41769q-0.70165,0 -1.154332,0.41769q-0.452672,0.4064 -0.452672,1.07244q0,0.66605 0.452672,1.08373q0.452682,0.4064 1.154332,0.4064z"/>
    <path stroke="null" fill="#2b2d2a" id="path122" d="m38.735991,8.378307q1.131696,0 1.822037,0.67733q0.70165,0.67734 0.70165,2.00943l0,3.47697l-1.765447,0l0,-3.20604q0,-0.72249 -0.316876,-1.07245q-0.316876,-0.36124 -0.916673,-0.36124q-0.667695,0 -1.063787,0.41769q-0.396092,0.4064 -0.396092,1.2192l0,3.00284l-1.765447,0l0,-6.07342l1.686221,0l0,0.7112q0.35083,-0.38382 0.87141,-0.58702q0.520581,-0.21449 1.143014,-0.21449l-0.00001,0z"/>
    <path stroke="null" fill="#2b2d2a" id="path124" d="m45.050496,8.378307q1.414627,0 2.172857,0.67733q0.75824,0.66605 0.75824,2.02071l0,3.46569l-1.652276,0l0,-0.75635q-0.497945,0.84666 -1.855981,0.84666q-0.70165,0 -1.22223,-0.23706q-0.509263,-0.23707 -0.780866,-0.65476q-0.271613,-0.41769 -0.271613,-0.94826q0,-0.84667 0.633751,-1.33209q0.645069,-0.48543 1.98047,-0.48543l1.403299,0q0,-0.57573 -0.35083,-0.88053q-0.35082,-0.31609 -1.052469,-0.31609q-0.486626,0 -0.961945,0.15805q-0.46399,0.14675 -0.792184,0.4064l-0.633751,-1.23049q0.497945,-0.34996 1.188276,-0.54187q0.70166,-0.19191 1.437253,-0.19191zm-0.135797,5.06871q0.452672,0 0.803502,-0.2032q0.35082,-0.21449 0.497945,-0.62089l0,-0.62089l-1.210912,0q-1.086423,0 -1.086423,0.7112q0,0.33867 0.260285,0.54187q0.271603,0.19191 0.735604,0.19191z"/>
    <path stroke="null" fill="#2b2d2a" id="path126" d="m55.661373,8.468617l0,5.05742q0,1.67076 -0.8714,2.48356q-0.87141,0.8128 -2.546323,0.8128q-0.882718,0 -1.674902,-0.21449q-0.792184,-0.21449 -1.312765,-0.62089l0.70165,-1.26435q0.384774,0.31608 0.973253,0.49671q0.588489,0.19191 1.176968,0.19191q0.916673,0 1.346719,-0.41769q0.441354,-0.4064 0.441354,-1.24178l0,-0.25964q-0.690331,0.75635 -1.92388,0.75635q-0.837456,0 -1.539106,-0.36124q-0.690331,-0.37254 -1.097742,-1.03858q-0.40741,-0.66604 -0.40741,-1.53529q0,-0.86924 0.40741,-1.53529q0.40741,-0.66604 1.097742,-1.02729q0.70165,-0.37253 1.539106,-0.37253q1.324083,0 2.014414,0.86924l0,-0.77893l1.674912,0zm-3.338497,4.33493q0.70165,0 1.143004,-0.4064q0.452682,-0.41768 0.452682,-1.08373q0,-0.66604 -0.452682,-1.07244q-0.441354,-0.41769 -1.143004,-0.41769q-0.70165,0 -1.154332,0.41769q-0.452682,0.4064 -0.452682,1.07244q0,0.66605 0.452682,1.08373q0.452682,0.4064 1.154332,0.4064z"/>
    <path stroke="null" fill="#2b2d2a" id="path128" d="m62.992278,11.527907q0,0.0339 -0.033984,0.47413l-4.605999,0q0.124489,0.56445 0.588479,0.89183q0.46399,0.32737 1.154332,0.32737q0.475308,0 0.837446,-0.13546q0.373466,-0.14676 0.690342,-0.45156l0.939299,1.016q-0.860082,0.98213 -2.512359,0.98213q-1.029843,0 -1.822027,-0.39511q-0.792184,-0.4064 -1.22223,-1.1176q-0.430046,-0.7112 -0.430046,-1.61431q0,-0.89182 0.418728,-1.60302q0.430046,-0.72249 1.16565,-1.1176q0.746912,-0.4064 1.663584,-0.4064q0.894047,0 1.618322,0.38382q0.724286,0.38382 1.131696,1.10631q0.418728,0.7112 0.418728,1.65947l0.00004,0zm-3.157428,-1.81751q-0.599797,0 -1.007207,0.33867q-0.40741,0.33866 -0.497945,0.92568l2.998995,0q-0.090534,-0.57573 -0.497955,-0.9144q-0.40741,-0.34995 -0.995889,-0.34995z"/>
   </g>
  </g>
 </g>
</svg>